<svg xmlns="http://www.w3.org/2000/svg" xmlns:xlink="http://www.w3.org/1999/xlink" width="500" zoomAndPan="magnify" viewBox="0 0 375 374.999991" height="500" preserveAspectRatio="xMidYMid meet" version="1.0"><defs><g/><clipPath id="3525c37c44"><path d="M 11.988281 133 L 62 133 L 62 187.84375 L 11.988281 187.84375 Z M 11.988281 133 " clip-rule="nonzero"/></clipPath><clipPath id="70f8f8015c"><path d="M 24 118.09375 L 49 118.09375 L 49 134 L 24 134 Z M 24 118.09375 " clip-rule="nonzero"/></clipPath><clipPath id="60f346e77d"><path d="M 65 133 L 115.488281 133 L 115.488281 187.84375 L 65 187.84375 Z M 65 133 " clip-rule="nonzero"/></clipPath><clipPath id="3555c6933a"><path d="M 78 118.09375 L 103 118.09375 L 103 134 L 78 134 Z M 78 118.09375 " clip-rule="nonzero"/></clipPath></defs><g clip-path="url(#3525c37c44)"><path fill="#e8e8e8" d="M 40.410156 152.519531 C 41.476562 152.226562 42.578125 152.847656 42.875 153.914062 C 45.257812 162.527344 52.726562 168.75 61.464844 169.667969 L 61.464844 139.910156 C 61.464844 136.527344 58.734375 133.785156 55.363281 133.785156 L 18.078125 133.785156 C 14.707031 133.785156 11.972656 136.527344 11.972656 139.910156 L 11.972656 181.714844 C 11.972656 185.09375 14.707031 187.832031 18.078125 187.832031 L 55.363281 187.832031 C 58.734375 187.832031 61.464844 185.09375 61.464844 181.714844 L 61.464844 173.699219 C 50.929688 172.761719 41.882812 165.328125 39.019531 154.984375 C 38.730469 153.917969 39.347656 152.816406 40.410156 152.519531 Z M 52.238281 150.066406 C 53.738281 150.066406 54.957031 151.300781 54.957031 152.820312 C 54.957031 154.339844 53.738281 155.578125 52.238281 155.578125 C 50.738281 155.578125 49.515625 154.339844 49.515625 152.820312 C 49.515625 151.300781 50.738281 150.066406 52.238281 150.066406 Z M 52.238281 150.066406 " fill-opacity="1" fill-rule="nonzero"/></g><g clip-path="url(#70f8f8015c)"><path fill="#6d6d6d" d="M 48.890625 133.785156 L 44.898438 133.785156 L 44.898438 130.3125 C 44.898438 125.792969 41.230469 122.113281 36.722656 122.113281 C 32.214844 122.113281 28.546875 125.792969 28.546875 130.3125 L 28.546875 133.785156 L 24.554688 133.785156 L 24.554688 130.3125 C 24.554688 123.582031 30.015625 118.109375 36.722656 118.109375 C 43.429688 118.109375 48.894531 123.585938 48.894531 130.3125 L 48.894531 133.785156 Z M 48.890625 133.785156 " fill-opacity="1" fill-rule="nonzero"/></g><g clip-path="url(#60f346e77d)"><path fill="#947f57" d="M 109.351562 133.785156 L 72.070312 133.785156 C 68.699219 133.785156 65.96875 136.527344 65.96875 139.910156 L 65.96875 169.671875 C 74.707031 168.753906 82.171875 162.527344 84.5625 153.914062 C 84.855469 152.847656 85.953125 152.222656 87.019531 152.519531 C 88.082031 152.816406 88.707031 153.917969 88.414062 154.984375 C 85.546875 165.328125 76.5 172.765625 65.96875 173.699219 L 65.96875 181.714844 C 65.96875 185.09375 68.699219 187.832031 72.070312 187.832031 L 109.351562 187.832031 C 112.722656 187.832031 115.457031 185.09375 115.457031 181.714844 L 115.457031 139.910156 C 115.457031 136.527344 112.722656 133.785156 109.351562 133.785156 Z M 75.199219 155.578125 C 73.691406 155.578125 72.476562 154.339844 72.476562 152.820312 C 72.476562 151.300781 73.691406 150.066406 75.199219 150.066406 C 76.699219 150.066406 77.917969 151.300781 77.917969 152.820312 C 77.917969 154.339844 76.699219 155.578125 75.199219 155.578125 Z M 75.199219 155.578125 " fill-opacity="1" fill-rule="nonzero"/></g><g clip-path="url(#3555c6933a)"><path fill="#6d6d6d" d="M 102.886719 133.785156 L 98.890625 133.785156 L 98.890625 130.3125 C 98.890625 125.792969 95.222656 122.113281 90.714844 122.113281 C 86.207031 122.113281 82.542969 125.792969 82.542969 130.3125 L 82.542969 133.785156 L 78.546875 133.785156 L 78.546875 130.3125 C 78.546875 123.582031 84.007812 118.109375 90.714844 118.109375 C 97.429688 118.109375 102.890625 123.585938 102.890625 130.3125 L 102.890625 133.785156 Z M 102.886719 133.785156 " fill-opacity="1" fill-rule="nonzero"/></g><g fill="#ffffff" fill-opacity="1"><g transform="translate(94.878338, 162.547797)"><g/></g></g><g fill="#ffffff" fill-opacity="1"><g transform="translate(103.136154, 162.547797)"><g/></g></g><g fill="#ffffff" fill-opacity="1"><g transform="translate(111.393971, 162.547797)"><g/></g></g><g fill="#ffffff" fill-opacity="1"><g transform="translate(119.651773, 162.547797)"><g><path d="M 19.597656 -23.832031 C 16.550781 -24.917969 13.929688 -25.230469 12.074219 -25.230469 C 5.738281 -25.230469 1.960938 -22.710938 1.960938 -14.171875 L 1.960938 -10.429688 C 1.960938 -1.363281 6.507812 0.386719 11.863281 0.386719 C 15.921875 0.386719 18.617188 -0.804688 20.613281 -1.574219 L 19.878906 -3.394531 C 18.023438 -2.730469 15.503906 -1.609375 11.863281 -1.609375 C 7.523438 -1.609375 4.480469 -3.359375 4.480469 -10.601562 L 4.480469 -14.171875 C 4.480469 -22.1875 8.222656 -23.203125 12.144531 -23.203125 C 13.648438 -23.203125 15.921875 -22.816406 17.707031 -22.152344 L 17.742188 -18.792969 L 19.597656 -18.792969 Z M 19.597656 -23.832031 "/></g></g></g><g fill="#ffffff" fill-opacity="1"><g transform="translate(140.401764, 162.547797)"><g><path d="M 16.796875 -1.75 C 16.0625 -1.925781 16.132812 -5.5625 16.132812 -8.222656 L 16.132812 -11.722656 C 16.132812 -15.222656 15.816406 -19.457031 9.902344 -19.457031 C 7.734375 -19.457031 4.6875 -18.933594 2.90625 -18.476562 C 3.007812 -17.53125 3.042969 -16.621094 3.148438 -15.679688 L 4.828125 -15.679688 L 4.828125 -16.832031 C 6.335938 -17.078125 7.910156 -17.359375 9.695312 -17.359375 C 13.226562 -17.359375 13.824219 -15.644531 13.824219 -11.757812 L 9.554688 -11.757812 C 3.953125 -11.757812 1.574219 -9.660156 1.574219 -6.300781 L 1.574219 -5.84375 C 1.574219 -2.34375 3.007812 0.351562 7.910156 0.351562 C 11.863281 0.351562 12.949219 -0.558594 14.136719 -2.132812 L 14.277344 -2.132812 C 14.558594 -0.628906 14.699219 0.140625 16.519531 0.140625 C 17.324219 0.140625 17.636719 0.0351562 18.722656 -0.488281 C 18.617188 -1.015625 18.511719 -1.433594 18.371094 -1.960938 C 17.8125 -1.785156 17.425781 -1.679688 17.183594 -1.679688 C 17.078125 -1.679688 16.9375 -1.714844 16.796875 -1.75 Z M 13.859375 -6.472656 C 13.753906 -2.660156 11.828125 -1.925781 9.730469 -1.75 L 8.328125 -1.75 C 5.285156 -1.75 3.847656 -2.871094 3.847656 -5.425781 L 3.847656 -6.230469 C 3.847656 -8.574219 5.460938 -9.867188 9.378906 -9.867188 L 13.859375 -9.867188 Z M 13.859375 -6.472656 "/></g></g></g><g fill="#ffffff" fill-opacity="1"><g transform="translate(158.317397, 162.547797)"><g><path d="M 16.097656 -14.3125 C 16.097656 -15.746094 16.203125 -17.183594 16.203125 -18.6875 C 13.542969 -19.421875 12.457031 -19.527344 10.394531 -19.527344 C 6.089844 -19.527344 2.238281 -18.09375 2.238281 -10.988281 L 2.238281 -7.980469 C 2.238281 -0.980469 5.84375 0.351562 10.183594 0.351562 C 13.261719 0.351562 15.574219 -0.0703125 17.078125 -0.734375 C 16.832031 -1.398438 16.65625 -1.960938 16.414062 -2.625 C 15.011719 -2.101562 13.296875 -1.574219 10.671875 -1.574219 C 8.152344 -1.574219 4.550781 -1.890625 4.550781 -8.050781 L 4.550781 -11.128906 C 4.550781 -16.65625 7.769531 -17.566406 10.394531 -17.566406 C 11.410156 -17.566406 13.054688 -17.460938 14.3125 -16.9375 C 14.347656 -16.0625 14.347656 -15.1875 14.347656 -14.3125 Z M 10.464844 -0.453125 L 6.578125 6.789062 L 9.167969 6.789062 L 12.074219 -0.453125 Z M 10.464844 -0.453125 "/></g></g></g><g fill="#ffffff" fill-opacity="1"><g transform="translate(175.60317, 162.547797)"><g><path d="M 16.796875 -1.75 C 16.0625 -1.925781 16.132812 -5.5625 16.132812 -8.222656 L 16.132812 -11.722656 C 16.132812 -15.222656 15.816406 -19.457031 9.902344 -19.457031 C 7.734375 -19.457031 4.6875 -18.933594 2.90625 -18.476562 C 3.007812 -17.53125 3.042969 -16.621094 3.148438 -15.679688 L 4.828125 -15.679688 L 4.828125 -16.832031 C 6.335938 -17.078125 7.910156 -17.359375 9.695312 -17.359375 C 13.226562 -17.359375 13.824219 -15.644531 13.824219 -11.757812 L 9.554688 -11.757812 C 3.953125 -11.757812 1.574219 -9.660156 1.574219 -6.300781 L 1.574219 -5.84375 C 1.574219 -2.34375 3.007812 0.351562 7.910156 0.351562 C 11.863281 0.351562 12.949219 -0.558594 14.136719 -2.132812 L 14.277344 -2.132812 C 14.558594 -0.628906 14.699219 0.140625 16.519531 0.140625 C 17.324219 0.140625 17.636719 0.0351562 18.722656 -0.488281 C 18.617188 -1.015625 18.511719 -1.433594 18.371094 -1.960938 C 17.8125 -1.785156 17.425781 -1.679688 17.183594 -1.679688 C 17.078125 -1.679688 16.9375 -1.714844 16.796875 -1.75 Z M 13.859375 -6.472656 C 13.753906 -2.660156 11.828125 -1.925781 9.730469 -1.75 L 8.328125 -1.75 C 5.285156 -1.75 3.847656 -2.871094 3.847656 -5.425781 L 3.847656 -6.230469 C 3.847656 -8.574219 5.460938 -9.867188 9.378906 -9.867188 L 13.859375 -9.867188 Z M 13.859375 -6.472656 "/></g></g></g><g fill="#ffffff" fill-opacity="1"><g transform="translate(193.518803, 162.547797)"><g><path d="M 6.160156 6.648438 L 6.160156 -0.839844 C 7.207031 -0.0703125 8.398438 0.386719 11.722656 0.386719 C 15.886719 0.386719 19.632812 -1.050781 19.632812 -8.050781 L 19.632812 -10.601562 C 19.632812 -17.777344 15.921875 -19.527344 11.6875 -19.527344 C 8.117188 -19.527344 6.71875 -18.511719 5.597656 -17.671875 C 5.179688 -18.792969 4.445312 -19.351562 3.359375 -19.351562 C 2.519531 -19.351562 1.820312 -19.105469 0.59375 -18.6875 L 0.980469 -17.148438 C 1.539062 -17.359375 2.132812 -17.460938 2.800781 -17.460938 C 3.324219 -17.460938 3.847656 -17.183594 3.847656 -15.503906 L 3.847656 7.417969 Z M 6.160156 -15.992188 C 7.277344 -16.832031 9.238281 -17.601562 11.476562 -17.601562 C 14.277344 -17.601562 17.324219 -16.308594 17.324219 -10.636719 L 17.324219 -8.222656 C 17.324219 -2.554688 14.382812 -1.574219 11.410156 -1.574219 C 8.398438 -1.574219 7.277344 -2.132812 6.160156 -2.695312 Z M 6.160156 -15.992188 "/></g></g></g><g fill="#ffffff" fill-opacity="1"><g transform="translate(213.953875, 162.547797)"><g><path d="M 16.796875 -1.75 C 16.0625 -1.925781 16.132812 -5.5625 16.132812 -8.222656 L 16.132812 -11.722656 C 16.132812 -15.222656 15.816406 -19.457031 9.902344 -19.457031 C 7.734375 -19.457031 4.6875 -18.933594 2.90625 -18.476562 C 3.007812 -17.53125 3.042969 -16.621094 3.148438 -15.679688 L 4.828125 -15.679688 L 4.828125 -16.832031 C 6.335938 -17.078125 7.910156 -17.359375 9.695312 -17.359375 C 13.226562 -17.359375 13.824219 -15.644531 13.824219 -11.757812 L 9.554688 -11.757812 C 3.953125 -11.757812 1.574219 -9.660156 1.574219 -6.300781 L 1.574219 -5.84375 C 1.574219 -2.34375 3.007812 0.351562 7.910156 0.351562 C 11.863281 0.351562 12.949219 -0.558594 14.136719 -2.132812 L 14.277344 -2.132812 C 14.558594 -0.628906 14.699219 0.140625 16.519531 0.140625 C 17.324219 0.140625 17.636719 0.0351562 18.722656 -0.488281 C 18.617188 -1.015625 18.511719 -1.433594 18.371094 -1.960938 C 17.8125 -1.785156 17.425781 -1.679688 17.183594 -1.679688 C 17.078125 -1.679688 16.9375 -1.714844 16.796875 -1.75 Z M 13.859375 -6.472656 C 13.753906 -2.660156 11.828125 -1.925781 9.730469 -1.75 L 8.328125 -1.75 C 5.285156 -1.75 3.847656 -2.871094 3.847656 -5.425781 L 3.847656 -6.230469 C 3.847656 -8.574219 5.460938 -9.867188 9.378906 -9.867188 L 13.859375 -9.867188 Z M 13.859375 -6.472656 "/></g></g></g><g fill="#ffffff" fill-opacity="1"><g transform="translate(231.869508, 162.547797)"><g><path d="M 0.28125 -19.28125 L 0.28125 -17.253906 L 3.113281 -17.253906 C 5.109375 -11.476562 6.859375 -5.773438 8.921875 0 L 11.582031 0 L 17.359375 -17.253906 L 20.15625 -17.253906 L 20.15625 -19.28125 L 15.433594 -19.28125 C 13.753906 -13.789062 11.933594 -8.363281 10.253906 -2.871094 L 5.003906 -19.28125 Z M 0.28125 -19.28125 "/></g></g></g><g fill="#ffffff" fill-opacity="1"><g transform="translate(251.044861, 162.547797)"><g><path d="M 16.796875 -1.75 C 16.0625 -1.925781 16.132812 -5.5625 16.132812 -8.222656 L 16.132812 -11.722656 C 16.132812 -15.222656 15.816406 -19.457031 9.902344 -19.457031 C 7.734375 -19.457031 4.6875 -18.933594 2.90625 -18.476562 C 3.007812 -17.53125 3.042969 -16.621094 3.148438 -15.679688 L 4.828125 -15.679688 L 4.828125 -16.832031 C 6.335938 -17.078125 7.910156 -17.359375 9.695312 -17.359375 C 13.226562 -17.359375 13.824219 -15.644531 13.824219 -11.757812 L 9.554688 -11.757812 C 3.953125 -11.757812 1.574219 -9.660156 1.574219 -6.300781 L 1.574219 -5.84375 C 1.574219 -2.34375 3.007812 0.351562 7.910156 0.351562 C 11.863281 0.351562 12.949219 -0.558594 14.136719 -2.132812 L 14.277344 -2.132812 C 14.558594 -0.628906 14.699219 0.140625 16.519531 0.140625 C 17.324219 0.140625 17.636719 0.0351562 18.722656 -0.488281 C 18.617188 -1.015625 18.511719 -1.433594 18.371094 -1.960938 C 17.8125 -1.785156 17.425781 -1.679688 17.183594 -1.679688 C 17.078125 -1.679688 16.9375 -1.714844 16.796875 -1.75 Z M 13.859375 -6.472656 C 13.753906 -2.660156 11.828125 -1.925781 9.730469 -1.75 L 8.328125 -1.75 C 5.285156 -1.75 3.847656 -2.871094 3.847656 -5.425781 L 3.847656 -6.230469 C 3.847656 -8.574219 5.460938 -9.867188 9.378906 -9.867188 L 13.859375 -9.867188 Z M 13.859375 -6.472656 "/></g></g></g><g fill="#ffffff" fill-opacity="1"><g transform="translate(133.814776, 185.499554)"><g><path d="M 4.171875 0.0625 C 3.484375 0.0625 2.859375 -0.0859375 2.296875 -0.390625 C 1.742188 -0.703125 1.304688 -1.128906 0.984375 -1.671875 C 0.671875 -2.210938 0.515625 -2.820312 0.515625 -3.5 C 0.515625 -4.164062 0.671875 -4.769531 0.984375 -5.3125 C 1.304688 -5.851562 1.742188 -6.273438 2.296875 -6.578125 C 2.859375 -6.890625 3.488281 -7.046875 4.1875 -7.046875 C 4.707031 -7.046875 5.1875 -6.957031 5.625 -6.78125 C 6.0625 -6.613281 6.429688 -6.363281 6.734375 -6.03125 L 6.265625 -5.5625 C 5.722656 -6.113281 5.035156 -6.390625 4.203125 -6.390625 C 3.648438 -6.390625 3.144531 -6.257812 2.6875 -6 C 2.238281 -5.75 1.882812 -5.40625 1.625 -4.96875 C 1.375 -4.53125 1.25 -4.039062 1.25 -3.5 C 1.25 -2.945312 1.375 -2.453125 1.625 -2.015625 C 1.882812 -1.578125 2.238281 -1.226562 2.6875 -0.96875 C 3.144531 -0.71875 3.648438 -0.59375 4.203125 -0.59375 C 5.046875 -0.59375 5.734375 -0.875 6.265625 -1.4375 L 6.734375 -0.96875 C 6.429688 -0.632812 6.054688 -0.378906 5.609375 -0.203125 C 5.171875 -0.0234375 4.691406 0.0625 4.171875 0.0625 Z M 4.171875 0.0625 "/></g></g></g><g fill="#ffffff" fill-opacity="1"><g transform="translate(141.193497, 185.499554)"><g><path d="M 3.671875 -5.296875 C 4.328125 -5.296875 4.847656 -5.101562 5.234375 -4.71875 C 5.628906 -4.332031 5.828125 -3.773438 5.828125 -3.046875 L 5.828125 0 L 5.109375 0 L 5.109375 -2.96875 C 5.109375 -3.519531 4.972656 -3.9375 4.703125 -4.21875 C 4.429688 -4.507812 4.039062 -4.65625 3.53125 -4.65625 C 2.96875 -4.65625 2.519531 -4.484375 2.1875 -4.140625 C 1.863281 -3.804688 1.703125 -3.34375 1.703125 -2.75 L 1.703125 0 L 0.984375 0 L 0.984375 -7.40625 L 1.703125 -7.40625 L 1.703125 -4.328125 C 1.890625 -4.640625 2.148438 -4.878906 2.484375 -5.046875 C 2.828125 -5.210938 3.222656 -5.296875 3.671875 -5.296875 Z M 3.671875 -5.296875 "/></g></g></g><g fill="#ffffff" fill-opacity="1"><g transform="translate(148.152872, 185.499554)"><g><path d="M 2.828125 -5.296875 C 3.515625 -5.296875 4.039062 -5.125 4.40625 -4.78125 C 4.769531 -4.4375 4.953125 -3.925781 4.953125 -3.25 L 4.953125 0 L 4.265625 0 L 4.265625 -0.8125 C 4.109375 -0.539062 3.875 -0.328125 3.5625 -0.171875 C 3.257812 -0.0234375 2.894531 0.046875 2.46875 0.046875 C 1.882812 0.046875 1.414062 -0.0859375 1.0625 -0.359375 C 0.71875 -0.640625 0.546875 -1.015625 0.546875 -1.484375 C 0.546875 -1.921875 0.707031 -2.273438 1.03125 -2.546875 C 1.351562 -2.828125 1.867188 -2.96875 2.578125 -2.96875 L 4.25 -2.96875 L 4.25 -3.28125 C 4.25 -3.738281 4.117188 -4.082031 3.859375 -4.3125 C 3.609375 -4.550781 3.238281 -4.671875 2.75 -4.671875 C 2.414062 -4.671875 2.097656 -4.613281 1.796875 -4.5 C 1.492188 -4.394531 1.234375 -4.242188 1.015625 -4.046875 L 0.6875 -4.578125 C 0.957031 -4.804688 1.273438 -4.984375 1.640625 -5.109375 C 2.015625 -5.234375 2.410156 -5.296875 2.828125 -5.296875 Z M 2.578125 -0.515625 C 2.972656 -0.515625 3.3125 -0.601562 3.59375 -0.78125 C 3.882812 -0.96875 4.101562 -1.234375 4.25 -1.578125 L 4.25 -2.4375 L 2.59375 -2.4375 C 1.695312 -2.4375 1.25 -2.125 1.25 -1.5 C 1.25 -1.1875 1.363281 -0.941406 1.59375 -0.765625 C 1.832031 -0.597656 2.160156 -0.515625 2.578125 -0.515625 Z M 2.578125 -0.515625 "/></g></g></g><g fill="#ffffff" fill-opacity="1"><g transform="translate(154.243595, 185.499554)"><g><path d="M 7.53125 -5.296875 C 8.195312 -5.296875 8.71875 -5.101562 9.09375 -4.71875 C 9.46875 -4.34375 9.65625 -3.785156 9.65625 -3.046875 L 9.65625 0 L 8.953125 0 L 8.953125 -2.96875 C 8.953125 -3.519531 8.816406 -3.9375 8.546875 -4.21875 C 8.285156 -4.507812 7.914062 -4.65625 7.4375 -4.65625 C 6.894531 -4.65625 6.46875 -4.484375 6.15625 -4.140625 C 5.84375 -3.804688 5.6875 -3.34375 5.6875 -2.75 L 5.6875 0 L 4.96875 0 L 4.96875 -2.96875 C 4.96875 -3.519531 4.835938 -3.9375 4.578125 -4.21875 C 4.316406 -4.507812 3.941406 -4.65625 3.453125 -4.65625 C 2.910156 -4.65625 2.484375 -4.484375 2.171875 -4.140625 C 1.859375 -3.804688 1.703125 -3.34375 1.703125 -2.75 L 1.703125 0 L 0.984375 0 L 0.984375 -5.25 L 1.671875 -5.25 L 1.671875 -4.296875 C 1.859375 -4.609375 2.117188 -4.851562 2.453125 -5.03125 C 2.785156 -5.207031 3.164062 -5.296875 3.59375 -5.296875 C 4.03125 -5.296875 4.410156 -5.203125 4.734375 -5.015625 C 5.054688 -4.828125 5.300781 -4.550781 5.46875 -4.1875 C 5.65625 -4.53125 5.929688 -4.800781 6.296875 -5 C 6.660156 -5.195312 7.070312 -5.296875 7.53125 -5.296875 Z M 7.53125 -5.296875 "/></g></g></g><g fill="#ffffff" fill-opacity="1"><g transform="translate(165.036992, 185.499554)"><g><path d="M 3.6875 -5.296875 C 4.1875 -5.296875 4.632812 -5.179688 5.03125 -4.953125 C 5.425781 -4.734375 5.738281 -4.421875 5.96875 -4.015625 C 6.195312 -3.609375 6.3125 -3.144531 6.3125 -2.625 C 6.3125 -2.101562 6.195312 -1.640625 5.96875 -1.234375 C 5.738281 -0.828125 5.425781 -0.507812 5.03125 -0.28125 C 4.632812 -0.0625 4.1875 0.046875 3.6875 0.046875 C 3.25 0.046875 2.851562 -0.046875 2.5 -0.234375 C 2.15625 -0.421875 1.878906 -0.6875 1.671875 -1.03125 L 1.671875 0 L 0.984375 0 L 0.984375 -7.40625 L 1.703125 -7.40625 L 1.703125 -4.25 C 1.921875 -4.59375 2.203125 -4.851562 2.546875 -5.03125 C 2.890625 -5.207031 3.269531 -5.296875 3.6875 -5.296875 Z M 3.640625 -0.578125 C 4.003906 -0.578125 4.335938 -0.660156 4.640625 -0.828125 C 4.941406 -1.003906 5.175781 -1.25 5.34375 -1.5625 C 5.507812 -1.875 5.59375 -2.226562 5.59375 -2.625 C 5.59375 -3.019531 5.507812 -3.375 5.34375 -3.6875 C 5.175781 -4 4.941406 -4.238281 4.640625 -4.40625 C 4.335938 -4.582031 4.003906 -4.671875 3.640625 -4.671875 C 3.265625 -4.671875 2.929688 -4.582031 2.640625 -4.40625 C 2.347656 -4.238281 2.113281 -4 1.9375 -3.6875 C 1.769531 -3.375 1.6875 -3.019531 1.6875 -2.625 C 1.6875 -2.226562 1.769531 -1.875 1.9375 -1.5625 C 2.113281 -1.25 2.347656 -1.003906 2.640625 -0.828125 C 2.929688 -0.660156 3.265625 -0.578125 3.640625 -0.578125 Z M 3.640625 -0.578125 "/></g></g></g><g fill="#ffffff" fill-opacity="1"><g transform="translate(172.006346, 185.499554)"><g><path d="M 5.5625 -2.40625 L 1.171875 -2.40625 C 1.210938 -1.863281 1.421875 -1.421875 1.796875 -1.078125 C 2.171875 -0.742188 2.648438 -0.578125 3.234375 -0.578125 C 3.554688 -0.578125 3.851562 -0.632812 4.125 -0.75 C 4.40625 -0.863281 4.644531 -1.035156 4.84375 -1.265625 L 5.234375 -0.8125 C 5.003906 -0.53125 4.710938 -0.316406 4.359375 -0.171875 C 4.015625 -0.0234375 3.632812 0.046875 3.21875 0.046875 C 2.675781 0.046875 2.195312 -0.0664062 1.78125 -0.296875 C 1.363281 -0.523438 1.035156 -0.84375 0.796875 -1.25 C 0.566406 -1.65625 0.453125 -2.113281 0.453125 -2.625 C 0.453125 -3.132812 0.5625 -3.59375 0.78125 -4 C 1.007812 -4.40625 1.316406 -4.722656 1.703125 -4.953125 C 2.097656 -5.179688 2.539062 -5.296875 3.03125 -5.296875 C 3.507812 -5.296875 3.941406 -5.179688 4.328125 -4.953125 C 4.710938 -4.722656 5.015625 -4.40625 5.234375 -4 C 5.460938 -3.601562 5.578125 -3.144531 5.578125 -2.625 Z M 3.03125 -4.6875 C 2.519531 -4.6875 2.09375 -4.523438 1.75 -4.203125 C 1.40625 -3.878906 1.210938 -3.457031 1.171875 -2.9375 L 4.890625 -2.9375 C 4.847656 -3.457031 4.65625 -3.878906 4.3125 -4.203125 C 3.96875 -4.523438 3.539062 -4.6875 3.03125 -4.6875 Z M 3.03125 -4.6875 "/></g></g></g><g fill="#ffffff" fill-opacity="1"><g transform="translate(178.236858, 185.499554)"><g><path d="M 1.671875 -4.21875 C 1.835938 -4.570312 2.082031 -4.835938 2.40625 -5.015625 C 2.738281 -5.203125 3.148438 -5.296875 3.640625 -5.296875 L 3.640625 -4.609375 L 3.46875 -4.609375 C 2.914062 -4.609375 2.484375 -4.4375 2.171875 -4.09375 C 1.859375 -3.757812 1.703125 -3.285156 1.703125 -2.671875 L 1.703125 0 L 0.984375 0 L 0.984375 -5.25 L 1.671875 -5.25 Z M 1.671875 -4.21875 "/></g></g></g><g fill="#ffffff" fill-opacity="1"><g transform="translate(182.44053, 185.499554)"><g/></g></g><g fill="#ffffff" fill-opacity="1"><g transform="translate(185.256366, 185.499554)"><g><path d="M 3.140625 0.046875 C 2.628906 0.046875 2.171875 -0.0664062 1.765625 -0.296875 C 1.359375 -0.523438 1.035156 -0.84375 0.796875 -1.25 C 0.566406 -1.65625 0.453125 -2.113281 0.453125 -2.625 C 0.453125 -3.132812 0.566406 -3.59375 0.796875 -4 C 1.035156 -4.40625 1.359375 -4.722656 1.765625 -4.953125 C 2.171875 -5.179688 2.628906 -5.296875 3.140625 -5.296875 C 3.640625 -5.296875 4.09375 -5.179688 4.5 -4.953125 C 4.90625 -4.722656 5.222656 -4.40625 5.453125 -4 C 5.679688 -3.59375 5.796875 -3.132812 5.796875 -2.625 C 5.796875 -2.113281 5.679688 -1.65625 5.453125 -1.25 C 5.222656 -0.84375 4.90625 -0.523438 4.5 -0.296875 C 4.09375 -0.0664062 3.640625 0.046875 3.140625 0.046875 Z M 3.140625 -0.578125 C 3.503906 -0.578125 3.832031 -0.660156 4.125 -0.828125 C 4.425781 -1.003906 4.660156 -1.25 4.828125 -1.5625 C 4.992188 -1.875 5.078125 -2.226562 5.078125 -2.625 C 5.078125 -3.019531 4.992188 -3.375 4.828125 -3.6875 C 4.660156 -4 4.425781 -4.238281 4.125 -4.40625 C 3.832031 -4.582031 3.503906 -4.671875 3.140625 -4.671875 C 2.765625 -4.671875 2.425781 -4.582031 2.125 -4.40625 C 1.832031 -4.238281 1.597656 -4 1.421875 -3.6875 C 1.253906 -3.375 1.171875 -3.019531 1.171875 -2.625 C 1.171875 -2.226562 1.253906 -1.875 1.421875 -1.5625 C 1.597656 -1.25 1.832031 -1.003906 2.125 -0.828125 C 2.425781 -0.660156 2.765625 -0.578125 3.140625 -0.578125 Z M 3.140625 -0.578125 "/></g></g></g><g fill="#ffffff" fill-opacity="1"><g transform="translate(191.716515, 185.499554)"><g><path d="M 2.71875 -6.859375 C 2.414062 -6.859375 2.1875 -6.773438 2.03125 -6.609375 C 1.875 -6.441406 1.796875 -6.195312 1.796875 -5.875 L 1.796875 -5.25 L 3.421875 -5.25 L 3.421875 -4.65625 L 1.8125 -4.65625 L 1.8125 0 L 1.109375 0 L 1.109375 -4.65625 L 0.171875 -4.65625 L 0.171875 -5.25 L 1.109375 -5.25 L 1.109375 -5.90625 C 1.109375 -6.382812 1.242188 -6.757812 1.515625 -7.03125 C 1.796875 -7.3125 2.191406 -7.453125 2.703125 -7.453125 C 2.898438 -7.453125 3.085938 -7.421875 3.265625 -7.359375 C 3.453125 -7.304688 3.613281 -7.226562 3.75 -7.125 L 3.5 -6.59375 C 3.289062 -6.769531 3.03125 -6.859375 2.71875 -6.859375 Z M 2.71875 -6.859375 "/></g></g></g><g fill="#ffffff" fill-opacity="1"><g transform="translate(195.301154, 185.499554)"><g/></g></g><g fill="#ffffff" fill-opacity="1"><g transform="translate(198.116989, 185.499554)"><g><path d="M 4.171875 0.0625 C 3.484375 0.0625 2.859375 -0.0859375 2.296875 -0.390625 C 1.742188 -0.703125 1.304688 -1.128906 0.984375 -1.671875 C 0.671875 -2.210938 0.515625 -2.820312 0.515625 -3.5 C 0.515625 -4.164062 0.671875 -4.769531 0.984375 -5.3125 C 1.304688 -5.851562 1.742188 -6.273438 2.296875 -6.578125 C 2.859375 -6.890625 3.488281 -7.046875 4.1875 -7.046875 C 4.707031 -7.046875 5.1875 -6.957031 5.625 -6.78125 C 6.0625 -6.613281 6.429688 -6.363281 6.734375 -6.03125 L 6.265625 -5.5625 C 5.722656 -6.113281 5.035156 -6.390625 4.203125 -6.390625 C 3.648438 -6.390625 3.144531 -6.257812 2.6875 -6 C 2.238281 -5.75 1.882812 -5.40625 1.625 -4.96875 C 1.375 -4.53125 1.25 -4.039062 1.25 -3.5 C 1.25 -2.945312 1.375 -2.453125 1.625 -2.015625 C 1.882812 -1.578125 2.238281 -1.226562 2.6875 -0.96875 C 3.144531 -0.71875 3.648438 -0.59375 4.203125 -0.59375 C 5.046875 -0.59375 5.734375 -0.875 6.265625 -1.4375 L 6.734375 -0.96875 C 6.429688 -0.632812 6.054688 -0.378906 5.609375 -0.203125 C 5.171875 -0.0234375 4.691406 0.0625 4.171875 0.0625 Z M 4.171875 0.0625 "/></g></g></g><g fill="#ffffff" fill-opacity="1"><g transform="translate(205.49571, 185.499554)"><g><path d="M 3.140625 0.046875 C 2.628906 0.046875 2.171875 -0.0664062 1.765625 -0.296875 C 1.359375 -0.523438 1.035156 -0.84375 0.796875 -1.25 C 0.566406 -1.65625 0.453125 -2.113281 0.453125 -2.625 C 0.453125 -3.132812 0.566406 -3.59375 0.796875 -4 C 1.035156 -4.40625 1.359375 -4.722656 1.765625 -4.953125 C 2.171875 -5.179688 2.628906 -5.296875 3.140625 -5.296875 C 3.640625 -5.296875 4.09375 -5.179688 4.5 -4.953125 C 4.90625 -4.722656 5.222656 -4.40625 5.453125 -4 C 5.679688 -3.59375 5.796875 -3.132812 5.796875 -2.625 C 5.796875 -2.113281 5.679688 -1.65625 5.453125 -1.25 C 5.222656 -0.84375 4.90625 -0.523438 4.5 -0.296875 C 4.09375 -0.0664062 3.640625 0.046875 3.140625 0.046875 Z M 3.140625 -0.578125 C 3.503906 -0.578125 3.832031 -0.660156 4.125 -0.828125 C 4.425781 -1.003906 4.660156 -1.25 4.828125 -1.5625 C 4.992188 -1.875 5.078125 -2.226562 5.078125 -2.625 C 5.078125 -3.019531 4.992188 -3.375 4.828125 -3.6875 C 4.660156 -4 4.425781 -4.238281 4.125 -4.40625 C 3.832031 -4.582031 3.503906 -4.671875 3.140625 -4.671875 C 2.765625 -4.671875 2.425781 -4.582031 2.125 -4.40625 C 1.832031 -4.238281 1.597656 -4 1.421875 -3.6875 C 1.253906 -3.375 1.171875 -3.019531 1.171875 -2.625 C 1.171875 -2.226562 1.253906 -1.875 1.421875 -1.5625 C 1.597656 -1.25 1.832031 -1.003906 2.125 -0.828125 C 2.425781 -0.660156 2.765625 -0.578125 3.140625 -0.578125 Z M 3.140625 -0.578125 "/></g></g></g><g fill="#ffffff" fill-opacity="1"><g transform="translate(211.95586, 185.499554)"><g><path d="M 7.53125 -5.296875 C 8.195312 -5.296875 8.71875 -5.101562 9.09375 -4.71875 C 9.46875 -4.34375 9.65625 -3.785156 9.65625 -3.046875 L 9.65625 0 L 8.953125 0 L 8.953125 -2.96875 C 8.953125 -3.519531 8.816406 -3.9375 8.546875 -4.21875 C 8.285156 -4.507812 7.914062 -4.65625 7.4375 -4.65625 C 6.894531 -4.65625 6.46875 -4.484375 6.15625 -4.140625 C 5.84375 -3.804688 5.6875 -3.34375 5.6875 -2.75 L 5.6875 0 L 4.96875 0 L 4.96875 -2.96875 C 4.96875 -3.519531 4.835938 -3.9375 4.578125 -4.21875 C 4.316406 -4.507812 3.941406 -4.65625 3.453125 -4.65625 C 2.910156 -4.65625 2.484375 -4.484375 2.171875 -4.140625 C 1.859375 -3.804688 1.703125 -3.34375 1.703125 -2.75 L 1.703125 0 L 0.984375 0 L 0.984375 -5.25 L 1.671875 -5.25 L 1.671875 -4.296875 C 1.859375 -4.609375 2.117188 -4.851562 2.453125 -5.03125 C 2.785156 -5.207031 3.164062 -5.296875 3.59375 -5.296875 C 4.03125 -5.296875 4.410156 -5.203125 4.734375 -5.015625 C 5.054688 -4.828125 5.300781 -4.550781 5.46875 -4.1875 C 5.65625 -4.53125 5.929688 -4.800781 6.296875 -5 C 6.660156 -5.195312 7.070312 -5.296875 7.53125 -5.296875 Z M 7.53125 -5.296875 "/></g></g></g><g fill="#ffffff" fill-opacity="1"><g transform="translate(222.749257, 185.499554)"><g><path d="M 7.53125 -5.296875 C 8.195312 -5.296875 8.71875 -5.101562 9.09375 -4.71875 C 9.46875 -4.34375 9.65625 -3.785156 9.65625 -3.046875 L 9.65625 0 L 8.953125 0 L 8.953125 -2.96875 C 8.953125 -3.519531 8.816406 -3.9375 8.546875 -4.21875 C 8.285156 -4.507812 7.914062 -4.65625 7.4375 -4.65625 C 6.894531 -4.65625 6.46875 -4.484375 6.15625 -4.140625 C 5.84375 -3.804688 5.6875 -3.34375 5.6875 -2.75 L 5.6875 0 L 4.96875 0 L 4.96875 -2.96875 C 4.96875 -3.519531 4.835938 -3.9375 4.578125 -4.21875 C 4.316406 -4.507812 3.941406 -4.65625 3.453125 -4.65625 C 2.910156 -4.65625 2.484375 -4.484375 2.171875 -4.140625 C 1.859375 -3.804688 1.703125 -3.34375 1.703125 -2.75 L 1.703125 0 L 0.984375 0 L 0.984375 -5.25 L 1.671875 -5.25 L 1.671875 -4.296875 C 1.859375 -4.609375 2.117188 -4.851562 2.453125 -5.03125 C 2.785156 -5.207031 3.164062 -5.296875 3.59375 -5.296875 C 4.03125 -5.296875 4.410156 -5.203125 4.734375 -5.015625 C 5.054688 -4.828125 5.300781 -4.550781 5.46875 -4.1875 C 5.65625 -4.53125 5.929688 -4.800781 6.296875 -5 C 6.660156 -5.195312 7.070312 -5.296875 7.53125 -5.296875 Z M 7.53125 -5.296875 "/></g></g></g><g fill="#ffffff" fill-opacity="1"><g transform="translate(233.54266, 185.499554)"><g><path d="M 5.5625 -2.40625 L 1.171875 -2.40625 C 1.210938 -1.863281 1.421875 -1.421875 1.796875 -1.078125 C 2.171875 -0.742188 2.648438 -0.578125 3.234375 -0.578125 C 3.554688 -0.578125 3.851562 -0.632812 4.125 -0.75 C 4.40625 -0.863281 4.644531 -1.035156 4.84375 -1.265625 L 5.234375 -0.8125 C 5.003906 -0.53125 4.710938 -0.316406 4.359375 -0.171875 C 4.015625 -0.0234375 3.632812 0.046875 3.21875 0.046875 C 2.675781 0.046875 2.195312 -0.0664062 1.78125 -0.296875 C 1.363281 -0.523438 1.035156 -0.84375 0.796875 -1.25 C 0.566406 -1.65625 0.453125 -2.113281 0.453125 -2.625 C 0.453125 -3.132812 0.5625 -3.59375 0.78125 -4 C 1.007812 -4.40625 1.316406 -4.722656 1.703125 -4.953125 C 2.097656 -5.179688 2.539062 -5.296875 3.03125 -5.296875 C 3.507812 -5.296875 3.941406 -5.179688 4.328125 -4.953125 C 4.710938 -4.722656 5.015625 -4.40625 5.234375 -4 C 5.460938 -3.601562 5.578125 -3.144531 5.578125 -2.625 Z M 3.03125 -4.6875 C 2.519531 -4.6875 2.09375 -4.523438 1.75 -4.203125 C 1.40625 -3.878906 1.210938 -3.457031 1.171875 -2.9375 L 4.890625 -2.9375 C 4.847656 -3.457031 4.65625 -3.878906 4.3125 -4.203125 C 3.96875 -4.523438 3.539062 -4.6875 3.03125 -4.6875 Z M 3.03125 -4.6875 "/></g></g></g><g fill="#ffffff" fill-opacity="1"><g transform="translate(239.773166, 185.499554)"><g><path d="M 1.671875 -4.21875 C 1.835938 -4.570312 2.082031 -4.835938 2.40625 -5.015625 C 2.738281 -5.203125 3.148438 -5.296875 3.640625 -5.296875 L 3.640625 -4.609375 L 3.46875 -4.609375 C 2.914062 -4.609375 2.484375 -4.4375 2.171875 -4.09375 C 1.859375 -3.757812 1.703125 -3.285156 1.703125 -2.671875 L 1.703125 0 L 0.984375 0 L 0.984375 -5.25 L 1.671875 -5.25 Z M 1.671875 -4.21875 "/></g></g></g><g fill="#ffffff" fill-opacity="1"><g transform="translate(243.976833, 185.499554)"><g><path d="M 3.171875 0.046875 C 2.648438 0.046875 2.179688 -0.0625 1.765625 -0.28125 C 1.359375 -0.507812 1.035156 -0.828125 0.796875 -1.234375 C 0.566406 -1.648438 0.453125 -2.113281 0.453125 -2.625 C 0.453125 -3.132812 0.566406 -3.59375 0.796875 -4 C 1.035156 -4.40625 1.359375 -4.722656 1.765625 -4.953125 C 2.179688 -5.179688 2.648438 -5.296875 3.171875 -5.296875 C 3.617188 -5.296875 4.019531 -5.207031 4.375 -5.03125 C 4.726562 -4.851562 5.007812 -4.59375 5.21875 -4.25 L 4.6875 -3.890625 C 4.519531 -4.148438 4.300781 -4.34375 4.03125 -4.46875 C 3.769531 -4.601562 3.484375 -4.671875 3.171875 -4.671875 C 2.785156 -4.671875 2.441406 -4.582031 2.140625 -4.40625 C 1.835938 -4.238281 1.597656 -4 1.421875 -3.6875 C 1.253906 -3.375 1.171875 -3.019531 1.171875 -2.625 C 1.171875 -2.21875 1.253906 -1.859375 1.421875 -1.546875 C 1.597656 -1.242188 1.835938 -1.003906 2.140625 -0.828125 C 2.441406 -0.660156 2.785156 -0.578125 3.171875 -0.578125 C 3.484375 -0.578125 3.769531 -0.640625 4.03125 -0.765625 C 4.300781 -0.890625 4.519531 -1.082031 4.6875 -1.34375 L 5.21875 -0.984375 C 5.007812 -0.648438 4.722656 -0.394531 4.359375 -0.21875 C 4.003906 -0.0390625 3.609375 0.046875 3.171875 0.046875 Z M 3.171875 0.046875 "/></g></g></g><g fill="#ffffff" fill-opacity="1"><g transform="translate(249.797984, 185.499554)"><g><path d="M 5.5625 -2.40625 L 1.171875 -2.40625 C 1.210938 -1.863281 1.421875 -1.421875 1.796875 -1.078125 C 2.171875 -0.742188 2.648438 -0.578125 3.234375 -0.578125 C 3.554688 -0.578125 3.851562 -0.632812 4.125 -0.75 C 4.40625 -0.863281 4.644531 -1.035156 4.84375 -1.265625 L 5.234375 -0.8125 C 5.003906 -0.53125 4.710938 -0.316406 4.359375 -0.171875 C 4.015625 -0.0234375 3.632812 0.046875 3.21875 0.046875 C 2.675781 0.046875 2.195312 -0.0664062 1.78125 -0.296875 C 1.363281 -0.523438 1.035156 -0.84375 0.796875 -1.25 C 0.566406 -1.65625 0.453125 -2.113281 0.453125 -2.625 C 0.453125 -3.132812 0.5625 -3.59375 0.78125 -4 C 1.007812 -4.40625 1.316406 -4.722656 1.703125 -4.953125 C 2.097656 -5.179688 2.539062 -5.296875 3.03125 -5.296875 C 3.507812 -5.296875 3.941406 -5.179688 4.328125 -4.953125 C 4.710938 -4.722656 5.015625 -4.40625 5.234375 -4 C 5.460938 -3.601562 5.578125 -3.144531 5.578125 -2.625 Z M 3.03125 -4.6875 C 2.519531 -4.6875 2.09375 -4.523438 1.75 -4.203125 C 1.40625 -3.878906 1.210938 -3.457031 1.171875 -2.9375 L 4.890625 -2.9375 C 4.847656 -3.457031 4.65625 -3.878906 4.3125 -4.203125 C 3.96875 -4.523438 3.539062 -4.6875 3.03125 -4.6875 Z M 3.03125 -4.6875 "/></g></g></g></svg>